<?xml version="1.0" encoding="UTF-8" standalone="no"?>
<svg
   viewBox="0 0 22 22"
   version="1.1"
   id="svg1"
   width="22"
   height="22"
   xmlns="http://www.w3.org/2000/svg"
   xmlns:svg="http://www.w3.org/2000/svg">
  <defs
     id="defs3051">
    <style
       type="text/css"
       id="current-color-scheme">
      .ColorScheme-Text {
        color:#232629;
      }
      </style>
  </defs>
  <rect
     style="fill:#000000;stroke-width:11.2"
     id="rect1"
     width="7"
     height="7"
     x="4.75"
     y="7.5" />
  <path
     id="rect2"
     style="fill:#000000;stroke-width:7.54245"
     d="m 6.2499998,5.5 v 2 h 1 v -1 h 1 v -1 h -1 z m 3,0 v 1 H 11.25 v -1 z M 12.25,5.5 v 1 h 2 v -1 z m 3,0 v 1 h 1 v 1 h 1 v -2 h -1 z m -9.0000002,3 v 2 h 1 v -2 z M 16.25,8.5 v 2 h 1 v -2 z m -10.0000002,3 v 2 h 1 v -2 z M 16.25,11.5 v 2 h 1 v -2 z m -10.0000002,3 v 2 h 1 1 v -1 h -1 v -1 z M 16.25,14.5 v 1 h -1 v 1 h 1 1 v -2 z m -7.0000002,1 v 1 H 11.25 v -1 z M 12.25,15.5 v 1 h 2 v -1 z" />
</svg>
