<?xml version="1.0" encoding="UTF-8" standalone="no"?>
<svg
   viewBox="0 0 22 22"
   version="1.1"
   id="svg1"
   width="22"
   height="22"
   xmlns="http://www.w3.org/2000/svg"
   xmlns:svg="http://www.w3.org/2000/svg">
  <defs
     id="defs3051">
    <style
       type="text/css"
       id="current-color-scheme">
      .ColorScheme-Text {
        color:#232629;
      }
      </style>
  </defs>
  <rect
     style="fill:#000000;stroke-width:11.2"
     id="rect1"
     width="7"
     height="7"
     x="10.25"
     y="7.5" />
  <path
     id="rect2"
     style="fill:#000000;stroke-width:7.54245"
     d="m 4.75,5.5 v 2 h 1 v -1 h 1 v -1 h -1 z m 3.0000001,0 v 1 h 2 v -1 z M 10.75,5.5 v 1 h 2 v -1 z m 3,0 v 1 h 1 v 1 h 1 v -2 h -1 z m -9,3 v 2 h 1 v -2 z m 10,0 v 2 h 1 v -2 z m -10,3 v 2 h 1 v -2 z m 10,0 v 2 h 1 v -2 z m -10,3 v 2 h 1 1 v -1 h -1 v -1 z m 10,0 v 1 h -1 v 1 h 1 1 v -2 z m -6.9999998,1 v 1 h 1.9999999 v -1 z M 10.75,15.5 v 1 h 2 v -1 z" />
</svg>
