<?xml version="1.0" encoding="UTF-8" standalone="no"?>
<svg
   viewBox="0 0 22 22"
   version="1.1"
   id="svg1"
   width="22"
   height="22"
   xmlns="http://www.w3.org/2000/svg"
   xmlns:svg="http://www.w3.org/2000/svg">
  <defs
     id="defs3051">
    <style
       type="text/css"
       id="current-color-scheme">
      .ColorScheme-Text {
        color:#232629;
      }
      </style>
  </defs>
  <path
     id="rect1"
     style="fill:#000000;stroke-width:6.9015"
     d="M 4,4 V 5 7 H 5 V 5 H 7 V 4 Z m 4,0 v 1 h 2.5 V 4 Z m 3.5,0 V 5 H 14 V 4 Z M 15,4 v 1 h 2 v 2 h 1 V 5 4 Z M 4,8 v 2.5 H 5 V 8 Z m 13,0 v 2.5 h 1 V 8 Z M 4,11.5 V 14 h 1 v -2.5 z m 13,0 V 14 h 1 V 11.5 Z M 4,15 v 2 1 H 7 V 17 H 5 v -2 z m 13,0 v 2 h -2 v 1 h 3 v -1 -2 z m -9,2 v 1 h 2.5 v -1 z m 3.5,0 v 1 H 14 v -1 z" />
  <circle
     style="fill:#000000;stroke-width:16"
     id="path16"
     cx="4.5"
     cy="17.5"
     r="2" />
</svg>
