<?xml version="1.0" encoding="UTF-8" standalone="no"?>
<svg
   viewBox="0 0 16 16"
   version="1.1"
   id="svg1"
   width="16"
   height="16"
   xmlns="http://www.w3.org/2000/svg"
   xmlns:svg="http://www.w3.org/2000/svg">
  <defs
     id="defs3051">
    <style
       type="text/css"
       id="current-color-scheme">
      .ColorScheme-Text {
        color:#232629;
      }
      </style>
  </defs>
  <path
     id="rect1"
     style="fill:#000000;stroke-width:6.9015"
     d="M 1,1 V 2 4 H 2 V 2 H 4 V 1 Z M 5,1 V 2 H 7.5 V 1 Z M 8.5,1 V 2 H 11 V 1 Z M 12,1 v 1 h 2 v 2 h 1 V 2 1 Z M 1,5 V 7.5 H 2 V 5 Z m 13,0 v 2.5 h 1 V 5 Z M 1,8.5 V 11 H 2 V 8.5 Z m 13,0 V 11 h 1 V 8.5 Z M 1,12 v 2 1 H 4 V 14 H 2 v -2 z m 13,0 v 2 h -2 v 1 h 3 v -1 -2 z m -9,2 v 1 h 2.5 v -1 z m 3.5,0 v 1 H 11 v -1 z" />
  <path
     id="rect16"
     style="fill:#000000;stroke-width:16.0041"
     d="M 4,4 V 9 H 5 7 V 8 H 5 V 7 H 6 V 6 H 5 V 5 H 7 V 4 H 5 Z" />
  <path
     id="rect20"
     style="fill:#000000;stroke-width:16"
     d="m 9,7 v 5 h 1 v -2 h 1 v 2 h 1 V 7 h -1 -1 z m 1,1 h 1 v 1 h -1 z" />
</svg>
